# xmcd
#
# Track frame offsets:
#	150
#	15843
#	36031
#	51519
#	69458
#	93811
#	112464
#	127973
#	144748
#	164398
#	180991
#
# Disc length: 2642 seconds
#
# Revision: 1
# Processed by: cddbd v1.5.2PL0 Copyright (c) Steve Scherf et al.
# Submitted via: audiograbber 1.83.01
#
DISCID=900a500b
DTITLE=Robert Randolph and the Family Band - Colorblind
DYEAR=2007
DGENRE=Rhythm `n Blues
TTITLE0=Ain't Nothing Wrong With That
TTITLE1=Deliver Me
TTITLE2=Diane
TTITLE3=Angels
TTITLE4=Jesus Is Just Alright (feat. E
TTITLE5=Stronger (feat. Leela James)
TTITLE6=Thrill Of It
TTITLE7=Blessed
TTITLE8=Love Is The Only Way (feat. Da
TTITLE9=Thankful N Thoughtful
TTITLE10=Homecoming
EXTD=
EXTT0=
EXTT1=
EXTT2=
EXTT3=
EXTT4=
EXTT5=
EXTT6=
EXTT7=
EXTT8=
EXTT9=
EXTT10=
PLAYORDER=
